<?xml version="1.0" encoding="UTF-8"?>
<svg id="Layer_2" data-name="Layer 2" xmlns="http://www.w3.org/2000/svg" viewBox="0 0 65.02 65.02">
  <defs>
    <style>
      .cls-1 {
        stroke: #347f6f;
        stroke-width: .25px;
      }

      .cls-1, .cls-2 {
        stroke-miterlimit: 10;
      }

      .cls-1, .cls-3 {
        fill: #f4efe6;
      }

      .cls-4 {
        fill: #347f6f;
      }

      .cls-2 {
        fill: none;
        stroke: #f4efe6;
        stroke-width: .5px;
      }
    </style>
  </defs>
  <g id="Layer_1-2" data-name="Layer 1">
    <g id="Layer_2-2" data-name="Layer 2">
      <g id="uuid-5eb2a127-5bac-472c-9fb7-4576f9dbf40b" data-name="Layer 1-2">
        <path class="cls-4" d="M32.52,0C14.57,0,0,14.55,0,32.5c0,17.95,14.55,32.51,32.5,32.52,17.95,0,32.51-14.55,32.52-32.5v-.02C65.02,14.55,50.47,0,32.52,0ZM32.52,62.05c-16.32,0-29.55-13.23-29.55-29.55S16.2,2.95,32.52,2.95s29.55,13.23,29.55,29.55-13.23,29.55-29.55,29.55h0Z"/>
        <path class="cls-4" d="M61.15,32.5c0,.51-1.21,1-1.24,1.49s1.11,1.11,1.11,1.61-1.32.85-1.4,1.34,1,1.23.9,1.72-1.4.7-1.53,1.18.86,1.33.7,1.81-1.46.54-1.65,1,.72,1.41.5,1.87-1.51.38-1.75.82.56,1.48.3,1.92-1.55.21-1.83.63.39,1.53.09,1.93-1.57,0-1.89.43.23,1.57-.12,1.93-1.56-.12-1.93.22.03,1.6-.39,1.93-1.54-.3-1.94,0-.11,1.58-.53,1.86-1.49-.45-1.93-.19-.28,1.56-.72,1.79-1.44-.61-1.9-.4-.44,1.52-.92,1.71-1.36-.77-1.84-.61-.61,1.46-1.09,1.6-1.27-.92-1.77-.81-.76,1.39-1.26,1.47-1.16-1-1.67-1-.91,1.3-1.42,1.32-1-1.16-1.55-1.16-1,1.19-1.54,1.16-.92-1.27-1.42-1.32-1.17,1.07-1.67,1-.77-1.36-1.26-1.47-1.28.94-1.77.81-.62-1.44-1.09-1.6-1.38.79-1.84.61-.46-1.5-.92-1.71-1.45.64-1.9.4-.29-1.53-.73-1.79-1.51.48-1.92.19-.13-1.56-.53-1.86-1.55.31-1.94,0,0-1.56-.32-1.91-1.58.15-1.93-.22.21-1.55-.12-1.93-1.58,0-1.89-.43.38-1.52.09-1.93-1.53-.21-1.76-.64.54-1.47.3-1.92-1.57-.35-1.78-.82.69-1.4.5-1.87-1.49-.53-1.65-1,.84-1.32.7-1.81-1.42-.68-1.53-1.18,1-1.22.9-1.72-1.34-.84-1.44-1.35,1.15-1.1,1.12-1.6-1.25-1-1.25-1.5,1.22-1,1.25-1.48-1.12-1.11-1.12-1.61,1.32-.85,1.4-1.34-1-1.23-.9-1.72,1.4-.7,1.53-1.18-.86-1.33-.7-1.81,1.46-.54,1.65-1-.72-1.41-.5-1.87,1.52-.39,1.79-.83-.56-1.49-.3-1.92c.26-.43,1.55-.21,1.83-.63s-.39-1.53-.09-1.93,1.56,0,1.89-.43-.23-1.57.12-1.93,1.56.12,1.93-.23-.07-1.59.35-1.91,1.54.3,1.94,0c.4-.3.11-1.58.53-1.86s1.49.45,1.93.19.27-1.56.72-1.8,1.44.62,1.9.41.44-1.52.92-1.71,1.36.77,1.84.61.6-1.46,1.09-1.6,1.27.91,1.77.81.76-1.39,1.26-1.47,1.16,1,1.67,1,.91-1.3,1.42-1.32,1,1.16,1.54,1.16,1-1.19,1.55-1.16.92,1.25,1.39,1.3,1.17-1.07,1.67-1,.77,1.36,1.26,1.47,1.28-.94,1.77-.81.62,1.44,1.09,1.6,1.38-.8,1.84-.61.46,1.5.92,1.71,1.45-.64,1.9-.4.29,1.53.72,1.79,1.51-.48,1.93-.19.13,1.55.53,1.86,1.55-.31,1.94,0,0,1.57.32,1.91,1.58-.14,1.93.23-.21,1.54.12,1.93,1.58,0,1.89.43-.38,1.52-.09,1.93,1.57.2,1.83.63-.54,1.47-.3,1.92,1.54.36,1.75.82-.69,1.4-.5,1.87,1.49.53,1.65,1-.84,1.32-.7,1.81,1.42.68,1.53,1.18-1,1.21-.9,1.72,1.34.83,1.4,1.34-1.11,1.1-1.08,1.61,1.24,1.01,1.24,1.51Z"/>
        <path class="cls-3" d="M32.52,64c-17.39.02-31.5-14.05-31.52-31.44-.01-8.38,3.32-16.41,9.25-22.33,12.3-12.3,32.25-12.3,44.55,0,12.3,12.3,12.3,32.25,0,44.55-5.9,5.92-13.92,9.24-22.28,9.22ZM32.52,1.84C15.59,1.84,1.86,15.57,1.86,32.5s13.73,30.66,30.66,30.66,30.66-13.73,30.66-30.66c-.02-16.92-13.74-30.63-30.66-30.65h0Z"/>
        <path class="cls-3" d="M14.61,49.14l2.41-.68v-.05c-.61-.59-1.47-.32-1.52.23h-.38c0-.75,1.17-1.35,2.08-.47,1.68,1.63-1.21,3.47-2.45,2.27-.22-.23-.37-.52-.44-.83-.27.05-.55-.04-.74-.24-.21-.15-.26-.45-.11-.66,0-.01.02-.02.03-.03.21-.19.54-.18.73.04.01.01.02.03.04.04.12.12.21.26.26.42l.09-.04ZM14.2,49.27c-.04-.1-.11-.19-.18-.27-.09-.09-.18-.09-.23,0s0,.14.06.24c.11.06.24.08.35.03ZM17.25,48.78l-2.62.75c.05.25.17.47.35.65.78.76,2.81-.29,2.27-1.4Z"/>
        <path class="cls-3" d="M17.27,51h-.08c-.38.16-.35.39-.14.55.38.19.81.22,1.21.1h0c.03.07.03.15,0,.22-.52.16-1.08.09-1.55-.17-.26-.16-.34-.5-.17-.76.08-.12.2-.21.33-.24l.83-.35c.31-.15.67-.11.95.09.29.22.29.59-.14.77h-.12c-.38.19-.84.11-1.12-.21ZM17.49,50.9c.15.23.46.3.7.17h.11c.48-.21.17-.53-.29-.34l-.52.17Z"/>
        <path class="cls-3" d="M17.87,52.14h.3c-.02.09.02.19.09.25.34.22.71-.5,1.1-.79-.24.09-.59.22-.95.33-.03-.07-.05-.14-.05-.22.58-.17,1.22-.43,1.5-.54l.18.33c-.53.32-.85.87-1.2,1.14.24,0,.47-.05.7-.11h0c.05.06.07.13.06.21-.47.17-.98.17-1.45,0h0l-.11-.06c-.17-.12-.24-.34-.17-.54Z"/>
        <path class="cls-3" d="M20.56,53.1c.05.06.07.14.06.22-.43.21-.92.25-1.38.12-.3-.17-.27-.49.05-.68l1.52-.87.37.21-1.62.95c-.17.09-.16.18-.07.23.34.05.69,0,1-.16l.07-.02ZM21.56,51.5c.11.09.12.26.02.37-.07.08-.18.11-.28.07-.12-.07-.16-.22-.09-.34.05-.13.2-.19.33-.14.02,0,.05.02.06.04h-.04Z"/>
        <path class="cls-3" d="M20.52,54.23l.19-.13c-.15.02-.29,0-.43-.05-.32-.16-.3-.48,0-.69l1-.68c.26-.18.59-.22.89-.12.21.11.3.36.22.58l.23.11-1.6,1.06c.44,0,.88-.11,1.28-.31h0c.05.06.07.13.08.21-.52.26-1.1.36-1.68.29l-.55.37c-.52.34-1.05,0-.87-.39s.63-.35,1.24-.25ZM19.9,54.65l.34-.23c-.36,0-.51,0-.56.14s.07.19.22.09ZM20.57,53.65c-.16.11-.14.19-.06.23s.49,0,.92-.25l.55-.37c.36-.26,0-.55-.4-.29l-1.01.68Z"/>
        <path class="cls-3" d="M24.33,54.77c.05.05.09.12.1.2-.39.27-.87.4-1.34.35-.33-.13-.35-.46-.06-.69l.88-.71c.29-.24.06-.44-.86.09l-1,.85-.41-.16,1.88-1.52.4.16-.25.2c.21-.12.45-.15.68-.08.23.08.31.37,0,.61l-1,.8c-.15.13-.13.21,0,.24s.57-.09,1-.32l-.02-.02Z"/>
        <path class="cls-3" d="M30.78,54.25c-.11-.23-.37-.2-.65.15l-1.35,1.68c-.63.78-1.48.6-1.49.1-.75.59-1.28,0-.8-.57l1.39-1.74c-.59.19-1.56.11-1.64.64,0,.14.06.27.18.34l-.21.25c-.23-.13-.37-.38-.35-.65.14-.88,1.47-.59,2.37-1l.16.41-1.55,1.92c-.37.46,0,.73.63,0l1.63-2,.43.07-1.84,2.29c-.26.33.2.5.65-.07l1.45-1.79c.81-1,1.68,0,1.35.4-.06.07-.15.1-.24.09-.14-.02-.23-.15-.21-.28,0,0,0,0,0,0-.01-.09.02-.17.09-.23ZM30.58,56.07c.06.04.11.1.14.17-.42.36-.89.68-1.24.62s-.43-.37-.2-.66l1.1-1.36.43.07-1.17,1.46c-.13.16-.09.23,0,.24s.53-.2.9-.51l.04-.03Z"/>
        <path class="cls-3" d="M31.16,54.57h.39l.43-.7h.43l-.42.7h.36l-.14.21h-.35l-1,1.6c-.11.17-.06.24,0,.24s.51-.27.83-.63h0c.07.03.13.08.16.15-.37.41-.79.79-1.15.78s-.48-.31-.29-.63l.91-1.49h-.3l.14-.23Z"/>
        <path class="cls-3" d="M33.9,55.9c.07.03.13.09.17.15-.34.43-.74.83-1.1.85s-.49-.28-.32-.61l.52-1c.18-.33-.13-.43-.76.44l-.61,1.18h-.44l1.66-3.07h.43l-.64,1.23c.14-.19.35-.32.59-.35.24,0,.43.22.26.55l-.64,1.12c-.09.18,0,.24.06.24s.49-.31.78-.69l.04-.04Z"/>
        <path class="cls-3" d="M39.4,54.83c.07.02.14.05.19.11-.25.49-.49.94-.8,1s-.41-.21-.37-.55l.05-.47-.57.14c-.29.66-.64,1.24-1.22,1.39-.88.21-1.52-.56-1.23-1.55.1-.58.64-.97,1.22-.87.24.04.45.16.61.33l-.3.21c-.32-.43-1-.27-1.17.44s.13,1.23.78,1.07c1.08-.27,1.45-3.38,2.45-3.31l-.25,2.64c0,.18,0,.22.07.21.22-.22.39-.48.52-.77l.02-.02ZM38,54.83l.49-.12.13-1.3c-.23.46-.43.94-.6,1.43h-.02Z"/>
        <path class="cls-3" d="M41.21,55.06l.26-3.37.39-.19-.12,1.56c.39.17.94-.12,1-.81.12-1.53-1.71-1.4-1.8-.09-.01.18,0,.36.05.54l-.29.09c-.07-.21-.1-.43-.09-.65-.04-.69.5-1.29,1.19-1.32.69-.04,1.29.5,1.32,1.19,0,.07,0,.14,0,.21.03.58-.42,1.08-1.01,1.11-.13,0-.26-.01-.38-.05l-.12,1.59-.4.19Z"/>
        <path class="cls-3" d="M45.08,51.92c.07-.02.14-.02.21,0,0,.48-.2.94-.54,1.28-.14.12-.35.1-.47-.04-.03-.04-.05-.08-.06-.12-.05.28-.18.54-.39.73-.25.16-.47,0-.49-.47v-1.7l.37-.23.06,1.71c0,.1,0,.3.11.28s.22-.29.34-.72v-1.55l.37-.23.06,1.87c0,.2.09.23.17.18s.27-.51.35-1h-.09Z"/>
        <path class="cls-3" d="M45.63,50.92c-.01-.09-.07-.16-.16-.18h-.09v1.18c-.07.01-.15.01-.22,0v-1.22h-.07c-.24-.07-.38-.31-.32-.55,0-.02,0-.03.02-.05l.32.06c-.03.1.03.19.13.22,0,0,0,0,0,0l.37.09c.23.02.41.21.41.44l.1.87c0,.19.11.21.18.16.19-.3.29-.65.27-1h0c.07-.02.15-.02.22,0,.03.48-.13.95-.43,1.32-.28.21-.56.05-.61-.32l-.12-1.02Z"/>
        <path class="cls-3" d="M47.02,52.84l-.68-3.41.33-.28v.17c.07-.59.72-.85.87-.07l.18.94c0,.11.06.23.08.36.15-.31.22-.65.2-1h0c.07-.03.15-.03.22,0,.06.56-.13,1.12-.53,1.53h0c-.16.15-.41.17-.59.05l.11-.25c.17.07.27-.07.24-.21l-.26-1.29c0-.22-.43-.2-.36.61l.51,2.56-.32.29Z"/>
        <path class="cls-3" d="M49.25,49.11c.12.93-.86,1.44-1.16.4l-.07-.36-.13-.42c-.14-.34-.07-.73.18-1,.29-.29.77-.17.91.34l.22.79c.16-.2.25-.45.23-.7h0c.07-.02.15-.02.22,0,.01.34-.1.68-.32.94h-.08ZM48.77,48.82h0l-.17-.6c-.14-.51-.58-.35-.42.23l.11.4.19.63c.14.5.53.19.42-.2h0c-.05,0-.1-.03-.13-.07-.11-.09-.12-.24-.04-.35.01-.01.02-.03.04-.04Z"/>
        <path class="cls-3" d="M49.79,48.59l.06-.3c.09.03.19,0,.25-.06.27-.31-.41-.76-.65-1.18.06.25.15.61.21,1-.07.01-.15.01-.22,0-.1-.6-.28-1.26-.36-1.56l.34-.14c.29.47.63.91,1,1.32.03-.23.03-.47,0-.7h0c.07-.02.15-.02.22,0,.11.48.06.99-.16,1.44h0s-.04.07-.07.1c-.16.18-.42.21-.62.08Z"/>
        <path class="cls-3" d="M50.72,46.63v.08c.16.37.39.33.55.12.18-.38.2-.81.07-1.21h0c.07-.03.15-.03.22,0,.17.52.12,1.08-.14,1.56-.14.26-.47.36-.73.21-.14-.07-.23-.2-.27-.35l-.37-.82c-.17-.32-.14-.71.08-1,.2-.29.58-.29.77.13l.05.12c.21.39.11.88-.23,1.16ZM50.62,46.4c.23-.16.29-.46.15-.7v-.11c-.21-.47-.53-.16-.33.3l.18.51Z"/>
        <path class="cls-2" d="M18.84,36.48v5h3.18v-25.29h3.73v26.6c-.02,1.36-1.13,2.45-2.49,2.45h-5.66c-1.35-.02-2.45-1.1-2.49-2.45v-6.31h3.73Z"/>
        <path class="cls-2" d="M41.84,45.24v-15.69l-3.08,9.45h-3l-2.82-9.47v15.71h-3.92v-29h3.74l4.44,14.52,4.61-14.52h3.73v29h-3.7Z"/>
        <path class="cls-3" d="M17.57,34.26v5h3.16V14h3.73v26.6c-.05,1.32-1.12,2.37-2.44,2.4h-5.69c-1.35-.02-2.45-1.1-2.49-2.45v-6.29h3.73Z"/>
        <path class="cls-3" d="M40.57,43v-15.67l-3.08,9.46h-3l-2.82-9.46v15.67h-3.89V14h3.74l4.44,14.52,4.61-14.52h3.73v29h-3.73Z"/>
        <path class="cls-1" d="M6.87,25.78l3.64-.7c.12-.02.23.06.26.18l.32,2.19c.02.13-.06.24-.19.27l-3.64.69c-.12,0-.18-.05-.14-.16l.39-1.05c.05-.13.02-.28-.06-.39l-.66-.81c-.08-.1-.04-.2.08-.22Z"/>
        <path class="cls-1" d="M19.57,29.3l-3.64.7c-.12.02-.23-.06-.26-.18l-.32-2.19c-.02-.12.06-.24.18-.27l3.65-.7c.12,0,.18.05.14.17l-.39,1.05c-.05.13-.02.28.06.39l.66.81c.05.05.05.13,0,.18-.02.02-.05.03-.08.04Z"/>
        <path class="cls-1" d="M17.22,28.53l-7.55,1.4c-.11.03-.22-.04-.24-.14,0-.01,0-.02,0-.04l-.4-2.91c-.01-.12.07-.23.19-.26l7.55-1.41c.12-.02.23.05.26.17,0,0,0,0,0,0l.42,2.91c.02.13-.08.25-.21.27,0,0,0,0-.01,0Z"/>
        <path class="cls-4" d="M11.02,26.8l1-.19.11.58h-.25l-.07-.33-.29.14.14.73h.18v-.16l.25-.05.1.54-.25.05v-.14h-.18l.14.76.31-.06-.06-.32h.24l.11.57-1,.19v-.25h.15l-.4-1.86h-.16l-.07-.2Z"/>
        <path class="cls-4" d="M12.88,26.7l-.39.08.11.58h.56l.16.15.16.84-.14.28-.56.11-.23-.2-.06-.34.27-.05.06.33.39-.08-.19-.74h-.55l-.16-.13-.13-.66.16-.3.55-.1.21.2.07.34-.27.05-.02-.36Z"/>
        <path class="cls-4" d="M14.46,26.15l.11.58h-.25l-.06-.33h-.22l.33,1.73h.15l.05.24-.59.11v-.25h.16l-.33-1.73h-.2l.06.33-.26.05-.11-.57,1.16-.16Z"/>
        <path class="cls-1" d="M46.66,29.39l3.64-.69c.11-.03.23.04.25.15,0,0,0,.02,0,.03l.32,2.19c.02.12-.07.24-.19.26l-3.67.67c-.12,0-.19-.05-.14-.17l.39-1.05c.05-.13.02-.27-.06-.38l-.66-.82c-.05-.06,0-.16.11-.19Z"/>
        <path class="cls-1" d="M59.36,32.92l-3.64.7c-.12.02-.23-.05-.26-.17,0,0,0,0,0,0l-.32-2.2c0-.11.07-.22.18-.24l3.65-.7c.12,0,.18,0,.14.17l-.4,1.05c-.04.13-.01.27.07.38l.66.82c.08.08.04.17-.08.2Z"/>
        <path class="cls-1" d="M57.02,32.14l-7.55,1.41c-.12.02-.23-.06-.25-.18l-.43-2.91c-.01-.13.09-.25.22-.26,0,0,0,0,.01,0l7.55-1.41c.12-.02.23.06.26.18l.42,2.91c.02.13-.07.24-.2.26-.01,0-.02,0-.03,0Z"/>
        <path class="cls-4" d="M50.8,31.11h-.27l-.09-.47.16-.23.53-.1.26.17.17.91-.2.21-.44.08.13.7.4-.07-.06-.31.27-.05.1.56-.93.18-.18-1,.17-.26.46-.09-.16-.8-.4.07.08.5Z"/>
        <path class="cls-4" d="M51.63,30.25l.72-.13.17.16.35,1.84-.13.22-.65.13-.22-.17-.34-1.83.1-.22ZM52.14,32.19l.44-.09-.32-1.71-.45.09.33,1.71Z"/>
        <path class="cls-4" d="M52.76,30l.73-.14.17.17.36,1.87-.12.23-.66.12-.22-.16-.35-1.83.09-.26ZM53.27,32l.45-.08-.33-1.71-.44.08.32,1.71Z"/>
        <path class="cls-4" d="M54.67,29.68l.05.25-.64.12.14.7.47-.09.19.12.18.94-.13.21-.55.11-.23-.15-.07-.41.26-.05.06.33.38-.07-.14-.78-.48.09-.21-.18-.18-1,.9-.14Z"/>
      </g>
    </g>
  </g>
</svg>