<?xml version="1.0" encoding="UTF-8"?>
<svg id="Layer_2" data-name="Layer 2" xmlns="http://www.w3.org/2000/svg" xmlns:xlink="http://www.w3.org/1999/xlink" viewBox="0 0 203.95 99.45">
  <defs>
    <style>
      .cls-1 {
        fill: none;
      }

      .cls-2, .cls-3, .cls-4 {
        fill-rule: evenodd;
      }

      .cls-2, .cls-5 {
        fill: #fff;
      }

      .cls-6 {
        fill: #231f20;
      }

      .cls-7 {
        fill: #025832;
      }

      .cls-8 {
        clip-path: url(#clippath-1);
      }

      .cls-3, .cls-9 {
        fill: #ffc820;
      }

      .cls-10 {
        fill: #ffc922;
      }

      .cls-11 {
        fill: #d0d2d3;
      }

      .cls-4, .cls-12 {
        fill: #005837;
      }

      .cls-13 {
        clip-path: url(#clippath);
      }
    </style>
    <clipPath id="clippath">
      <rect class="cls-1" x="105" width="98.95" height="99.45"/>
    </clipPath>
    <clipPath id="clippath-1">
      <rect class="cls-1" width="98.95" height="99.45"/>
    </clipPath>
  </defs>
  <g id="Layer_1-2" data-name="Layer 1">
    <g class="cls-13">
      <g>
        <path class="cls-11" d="M202.07,46.54c-.38-2-.83-3.82-1.45-5.76-2.12-5.72-4.55-9.96-8.41-14.66-1.08-1.23-1.74-1.92-2.26-2.42.99-.31,2.34-.88,3.37-3.01l.04-.12c1.91-6.73-3.93-14.51-8.9-17.55-1.91-1.11-3.51-1.61-5.18-1.61-.93,0-1.9.15-3.06.47-.47.12-.96.27-1.49.45l-.08.03c-2.53,1.22-4.16,2.73-3.95,6.19.06.87.33,1.47.61,1.92-.33-.17-.67-.34-1.02-.52-2.53-1.29-5.4-2.75-8.46-3.44-2.19-.52-4.31-.77-6.43-.76h-.02c-2.3,0-4.59.31-6.99.93-3.18.8-6.55,2.15-10.76,4.35.06-.25.1-.52.12-.8.28-1.69-.18-3.56-1.28-5.13-1.15-1.65-2.84-2.73-4.77-3.05-1.69-.23-3.05-.12-4.26.31-1.69.53-2.95,1.61-4.55,2.97l-.54.47c-5.75,5.95-8,10.57-6.7,13.74.73,1.78,2.39,2.64,3.77,3.02-4.17,3.07-7.01,6.83-10.22,11.35-.05.07-1.17,1.68-1.23,2.18l-.09.78h.31s.05,1.03.05,1.03v-.67l.06.66-.09-1.03h.65c.51.01,1.08-.02,1.63-.06.21-.01.42-.03.62-.04-.06.1-.12.19-.18.29-1.65,2.65-3.08,4.94-3.75,8.68l-.27,1.5.2-.12-.02.11,1.29-.76c.16-.09.31-.24.57-.49.37-.35.95-.89,1.57-1.26-1.13,3.01-1.91,6.06-2.43,9.48l-.27,1.8.22-.18-.03.17,1.38-1.12c.2-.16.43-.38.67-.61-.57,2.6-.38,5.27-.19,8.06l.19,2.91.17-.25.02.3,1.13-1.74c.18-.28.67-.71,1.28-1.04.04.48.07.96.1,1.44.28,4.09.57,8.31,2.66,12.07.24.45.22.63.2.97-.01.19-.03.42,0,.68.14,2.53,2.47,4.51,6.56,5.58,1.72.47,3.72.77,5.93.89,1.34.09,2.91.19,4.29.19,1.62,0,2.68-.13,3.37-.42,2.57-1.27,3.55-2.22,3.04-4.86l-.06-.18c-.95-1.96-2.65-3.25-4.18-4.39.14-.77.38-2.45.19-6.45v-.1c-.12-.56-.25-1.31-.37-2.09.99,1.17,2.09,2.31,3.67,3.15l1.4.74-.03-.1.27.15-.4-1.45c2.11,1.84,6.84,5.45,7.43,5.45h.02c.07.03.15.05.23.04.21,0,.37-.08.51-.19l2.83,1.03,4.09,2.2.23-.17.28.05.26-.28c.11-.12.22-.26.33-.41l.83-.61c.22.13.45.26.68.39,1.49.87,3.18,1.86,4.51,2.14l.69.15h0s.28.05.28.05l.1-.57.77-.69c.9.79,1.85,1.24,2.87,1.38.35.07.69.1,1.04.1h.56s.17-.44.17-.44c.13-.32.21-.62.28-.89.14-.53.26-.96.69-1.41.58,1.98,1.28,3.43,2.71,4.83-.03.52-.42,1.09-.86,1.73-.73,1.05-1.61,2.34-1.21,4.04-.85.4-2.21,1.14-3.85,2.83l-.05.06c-1.63,2.11-2.19,3.98-1.67,5.57.46,1.41,1.78,2.44,3.76,2.97.56.17,1.17.3,1.8.38h.05s.05,0,.05,0c1.55-.04,5.59-.2,9.55-.81.56-.09,1.18-.18,1.81-.27,2.92-.43,4.1-.62,4.59-.83.75-.16,1.49-.73,2.19-1.69,1.24-1.53,2.94-4.11,4.8-7.31l.26-.53c1.85-3.7,3.32-6.63,5.04-11.54,3.2-9.12,5.71-21.48,4.09-28.51"/>
        <path class="cls-10" d="M106.11,38.16l.1-.56c.01-.12.23-1.15.23-1.15l.38-1.04c.28-.77.85-1.76,1.26-2.35,2.71-3.81,5.28-7.26,8.67-10.18-1.09-.71-1.91-1.67-2.38-2.82-1.56-3.8.72-8.79,6.99-15.28l.09-.09.54-.47c1.65-1.41,3.07-2.63,5.04-3.24,1.39-.49,2.95-.61,4.85-.36,2.33.38,4.34,1.66,5.71,3.63.93,1.34,1.48,2.87,1.59,4.39,3.31-1.6,6.17-2.68,8.87-3.36,2.5-.65,4.9-.96,7.32-.97h.05c2.25,0,4.44.26,6.72.8,2.57.58,4.97,1.66,7.16,2.74.04-3.96,2.41-5.66,4.76-6.79l.24-.1c.56-.19,1.08-.34,1.58-.47,1.25-.35,2.34-.52,3.4-.52,1.93,0,3.74.56,5.86,1.8,2.87,1.75,5.67,4.7,7.53,7.9,1.6,2.75,3.24,6.93,2.01,11.27l-.13.34c-.66,1.38-1.46,2.24-2.27,2.81.28.31.6.66.94,1.05,3.99,4.86,6.49,9.22,8.68,15.1.65,2.04,1.12,3.92,1.5,5.97,1.68,7.33-.87,19.98-4.14,29.28-1.76,5-3.24,7.95-5.11,11.7l-.31.62c-1.87,3.22-3.61,5.87-4.9,7.46-.88,1.18-1.84,1.91-2.87,2.17-.67.25-1.82.45-4.8.88l-.25.04c-.54.08-1.07.16-1.55.23-4.04.62-8.14.78-9.72.82h-.26c-.76-.11-1.44-.25-2.07-.44-3.08-.82-4.25-2.56-4.69-3.88-.68-2.06-.04-4.38,1.9-6.89l.15-.18c1.28-1.33,2.44-2.13,3.35-2.65,0-1.75.91-3.09,1.56-4.03.12-.17.27-.39.39-.58-.42-.48-.81-1.44-1.14-2l-1.65.98c-.45,0-.86-.04-1.29-.12-.78-.11-1.54-.37-2.25-.78l-.22,1.19-2.3-.75c-1.51-.32-3.25-1.33-4.8-2.23.09-.1-.09.11,0,0l-.42-.2-1.06,1.26-.44.32-4.76-2.56-2.13-1.3c-.15.04-.24,1.03-.24,1.03,0,0-.94-.52-1.07-.57v-.02c-1.01-.35-4.68-3.16-6.33-4.44v1.29l-3.78-2.45,1.23.75c-.44-.23-.85-.49-1.23-.75.05,2.09-.03,3.44-.14,4.35,1.36,1.04,2.97,2.42,3.93,4.4l.18.53c.74,3.81-1.38,5.21-3.8,6.41l-.07.03c-.87.37-2.04.53-3.9.53-1.41,0-3-.1-4.38-.19-2.28-.12-4.37-.43-6.19-.93-6.36-1.66-7.48-5.01-7.59-6.86-.03-.33,0-.66,0-.86,0-.04,0-.08,0-.11-.01-.03-.03-.06-.04-.09-1.91-3.43-2.4-7.14-2.69-10.79l-2.37,3.64-.18.21v-.27s-.48-7.04-.48-7.04c-.11-1.66-.22-3.26-.19-4.85l-2.15,1.76-.24.07.82-5.41c.3-1.98.68-3.83,1.16-5.61l-2.7,1.58-.19.03.81-4.51c.54-3.01,1.56-5.18,2.74-7.2l-2.43-.12M166.8,90.02c-.9,1.18-1.87,2.85-1.42,4.21.39,1.19,1.74,1.77,2.8,2.06.51.15,1.03.26,1.57.34,1.64-.05,5.52-.21,9.32-.79.48-.07,1.02-.15,1.57-.23l.25-.04c1.62-.24,3.83-.56,4.25-.74l.26-.08c.39-.08.89-.5,1.36-1.16l.04-.06c1.2-1.47,2.85-3.99,4.65-7.09l.24-.49c1.84-3.67,3.28-6.55,4.98-11.38,3.13-8.92,5.6-20.95,4.04-27.71v-.06c-.38-1.94-.82-3.72-1.42-5.6-2.04-5.5-4.41-9.62-8.15-14.18-.94-1.06-1.61-1.78-2.15-2.3l-1.73-1.66,2.27-.72c.85-.27,1.74-.66,2.51-2.23,1.65-5.95-3.85-13.17-8.3-15.89-1.66-.97-3.05-1.41-4.46-1.41-.8,0-1.66.14-2.69.42-.45.12-.89.25-1.38.41-2.15,1.05-3.29,2.13-3.12,4.8.04.61.23.99.39,1.25l2.64,4.25-5.45-2.74c-2.46-1.25-5.24-2.67-8.14-3.33-2.1-.5-4.11-.76-6.13-.73-2.21,0-4.39.3-6.68.89-3.08.77-6.4,2.11-10.48,4.23l-2.68,1.4.7-2.98c.04-.19.07-.38.08-.56l.02-.16c.22-1.33-.16-2.81-1.04-4.07-.93-1.34-2.3-2.22-3.86-2.47-1.42-.19-2.58-.11-3.59.25-1.47.46-2.58,1.41-4.11,2.72l-.49.42c-5.14,5.33-7.4,9.65-6.36,12.16.54,1.32,1.85,1.93,2.86,2.2l2.8.78-2.35,1.73c-4.03,2.97-6.76,6.6-9.91,11.03-.13.19-.3.44-.46.7.17-.01.34-.02.51-.03l3.34-.2-1.61,2.61c-1.32,2.12-2.42,3.87-3.12,6.29.26-.21.55-.42.86-.59l3.38-1.99-1.4,3.72c-.89,2.37-1.55,4.75-2.04,7.36l.11-.09,2.53-2.44-.99,4.51c-.45,2.03-.39,4.18-.24,6.44l.22.62c.2-.14.41-.27.63-.38l1.86-1,.16,2.14c.04.48.07.96.1,1.45.27,3.93.55,7.99,2.48,11.47.41.77.41,1.26.38,1.77-.01.14-.02.3,0,.45.11,1.88,2.12,3.45,5.53,4.34,1.65.45,3.54.73,5.65.84,1.35.09,2.89.19,4.22.19s2.31-.1,2.81-.3c2.34-1.16,2.55-1.67,2.26-3.2-.83-1.65-2.43-2.84-3.71-3.8l-.7-.52.15-.87c.09-.5.37-2.03.17-6.07-.11-.57-.24-1.32-.36-2.09l-.77-4.91,3.18,3.77c.67.8,1.31,1.48,2.06,2.05l-.76-2.74,3.47,3.01c1.99,1.73,5.55,4.42,6.66,5.06l.68-.9,3.41,1.99,3.33,1.79h.01s.09,0,.09,0l.12-.17.93-.89,3.64,2.05c1.28.75,1.48.78,2.59,1.09v-.73l1.11-1.21,1.49.5c.69.6,1.39.95,2.15,1.05h.08c.13.04.25.06.38.07.03-.09.05-.19.07-.27.17-.61.36-1.31,1.04-2.02l1.65-1.72.67,2.3c.58,1.96,1.21,3.1,2.35,4.21l.46.45-.03.65c-.05.92-.58,1.71-1.1,2.46-.76,1.11-1.24,1.9-1,2.91l.26,1.12-1.02.49c-.85.41-2.01,1.06-3.42,2.51h0Z"/>
        <path class="cls-6" d="M114.59,76.48s0,0,0-.01h0Z"/>
        <path class="cls-6" d="M114.59,76.48s0,0,0-.01h0Z"/>
        <path class="cls-4" d="M169.43,97.25c-4.6-.6-6.54-3.32-3.16-7.7,1.98-2.04,3.53-2.61,4.21-2.94-1.18-2.9,2.21-4.44,1.89-6.47-1.78-1.66-2.42-3.39-3.05-5.89-1.99,1.17-1.75,2.15-2.24,3.37-2.49.05-3.75-1.8-4.31-2.3-.47.85-1.01,1.4-1.11,1.94-1.83-.39-4.6-2.35-6.23-3.13-.19.36-.48,1.18-1.03,1.78-.39-.08-4.67-2.86-6.86-4.52-.05.24-.58,1.66-.81,1.66-.09.03-6.2-4.3-7.89-6.14-.12.18-.56,1.11-.47,1.43-2.4-1.26-3.58-3.25-5.27-5.13.12,1.16.47,3.47.73,4.81.23,4.95-.2,6.23-.26,6.71,1.57,1.17,3.36,2.44,4.31,4.39.4,2.08-.09,2.81-2.66,4.08-1.29.54-4.85.33-7.3.16-6.92-.37-11.45-2.51-11.63-5.74-.06-.72.21-1.03-.28-1.95-2.44-4.39-2.34-9.52-2.76-14.26-1.15.27-2.25,1.11-2.65,1.71-.27-4.07-.66-7.69.94-11.19-.48,0-2.02,1.75-2.79,2.38.58-3.83,1.48-7.2,2.92-10.68-1.72-.14-3.44,1.99-3.85,2.23.76-4.23,2.51-6.52,4.52-9.83-1.11-.04-2.62.16-3.71.14.03-.21.87-1.51,1.1-1.86,3.35-4.71,6.5-8.95,11.54-12.2-1.96.11-11.76-2.05,1.54-15.82,2.88-2.44,4.42-4.02,8.55-3.46,3.72.61,5.96,4.36,5.43,7.38-.05,1.12-.62,2.07-.85,2.5,8.81-4.82,16.26-7.61,25.44-5.44,3.56.81,6.87,2.69,9.73,4.11.74.34,1.1.48,1.36.05.36-.65-.97-1.03-1.1-2.92-.18-2.82.88-4.21,3.55-5.5,3.4-1.13,5.55-1.22,8.86.71,4.75,2.91,10.38,10.35,8.56,16.72-1.32,2.75-3.13,2.5-4.07,3.06.71.6,1.3,1.13,3.07,3.14,3.82,4.65,6.18,8.78,8.26,14.41.6,1.9,1.04,3.69,1.41,5.64,1.58,6.88-.88,19.06-4.05,28.1-1.79,5.09-3.26,7.97-5.27,11.97-1.81,3.11-3.49,5.67-4.71,7.16-.66.9-1.29,1.37-1.87,1.46-.43.28-3.93.72-6.28,1.08-3.18.49-6.77.73-9.44.8"/>
        <path class="cls-4" d="M169.43,97.25c-4.6-.6-6.54-3.32-3.16-7.7,1.98-2.04,3.53-2.61,4.21-2.94-1.18-2.9,2.21-4.44,1.89-6.47-1.78-1.66-2.42-3.39-3.05-5.89-1.99,1.17-1.75,2.15-2.24,3.37-2.49.05-3.75-1.8-4.31-2.3-.47.85-1.01,1.4-1.11,1.94-1.83-.39-4.6-2.35-6.23-3.13-.19.36-.48,1.18-1.03,1.78-.39-.08-4.67-2.86-6.86-4.52-.05.24-.58,1.66-.81,1.66-.09.03-6.2-4.3-7.89-6.14-.12.18-.56,1.11-.47,1.43-2.4-1.26-3.58-3.25-5.27-5.13.12,1.16.47,3.47.73,4.81.23,4.95-.2,6.23-.26,6.71,1.57,1.17,3.36,2.44,4.31,4.39.4,2.08-.09,2.81-2.66,4.08-1.29.54-4.85.33-7.3.16-6.92-.37-11.45-2.51-11.63-5.74-.06-.72.21-1.03-.28-1.95-2.44-4.39-2.34-9.52-2.76-14.26-1.15.27-2.25,1.11-2.65,1.71-.27-4.07-.66-7.69.94-11.19-.48,0-2.02,1.75-2.79,2.38.58-3.83,1.48-7.2,2.92-10.68-1.72-.14-3.44,1.99-3.85,2.23.76-4.23,2.51-6.52,4.52-9.83-1.11-.04-2.62.16-3.71.14.03-.21.87-1.51,1.1-1.86,3.35-4.71,6.5-8.95,11.54-12.2-1.96.11-11.76-2.05,1.54-15.82,2.88-2.44,4.42-4.02,8.55-3.46,3.72.61,5.96,4.36,5.43,7.38-.05,1.12-.62,2.07-.85,2.5,8.81-4.82,16.26-7.61,25.44-5.44,3.56.81,6.87,2.69,9.73,4.11.74.34,1.1.48,1.36.05.36-.65-.97-1.03-1.1-2.92-.18-2.82.88-4.21,3.55-5.5,3.4-1.13,5.55-1.22,8.86.71,4.75,2.91,10.38,10.35,8.56,16.72-1.32,2.75-3.13,2.5-4.07,3.06.71.6,1.3,1.13,3.07,3.14,3.82,4.65,6.18,8.78,8.26,14.41.6,1.9,1.04,3.69,1.41,5.64,1.58,6.88-.88,19.06-4.05,28.1-1.79,5.09-3.26,7.97-5.27,11.97-1.81,3.11-3.49,5.67-4.71,7.16-.66.9-1.29,1.37-1.87,1.46-.43.28-3.93.72-6.28,1.08-3.18.49-6.77.73-9.44.8"/>
        <path class="cls-2" d="M136.35,61.59c.11,1.31,0,1.46,0,2.64-.76-.4-6.73-6.58-7.7-8.19-.11.65-.25,1.97-.18,2.62-.9.08-3.25-5.13-3.13-5.91-.62.36-.61,2.21-.67,3.71-1.78-2.32-3.9-5.9-4.19-8.35-.23-.08-1.52,1.67-1.68,2.3-.99-5.36.16-7.2,1.12-9.53-1.23.03-3.22,1.07-3.92,2.51-1.02-1.44,2.06-7.46,2.12-7.6-1.07.66-3.08,2.7-3.86,3.2.2-2.06,1.59-4.82,2.85-6.32-.54-.23-2.43.1-2.1-.07,1.39-2.4,5.84-6.01,8.06-6.76-.82-.09-2.21.07-3.19.13.25-1.17,4.6-3.96,5.97-4.68-.93-.41-3.1-1.29-3.71-1.7,1.05-.29,2.49-1.21,4.89-.89-.77-.9-1.15-1.19-1.97-2.82,2.21-.3,4.06.09,5.24.96.33-1.2,1.3-3.21,1.89-4.4.63,1.5.78,2.01,1.43,3.44,5.94-3.07,10.56-5.29,15.1-6.55,3.33-.92,6.54-1.43,10.44-.88,2.31.49,6.41,2.18,10.44,4.25,3.13,1.59,4.71,3.22,4.98,3.25.3-.91.65-1.44.7-3.2,1.03.54,3.84,3.82,4.59,5.59,1.42-1.49,2.64-2.61,3.07-3,.4,1.03.26,2.96-.04,4.9,1.22.25,2.71,1.26,3.32,2.07-.14.02-2.18.39-2.2.44,2.28,1.33,3.73,2.37,3.73,2.51-.58.03-1.57.01-2.15.04,3.3,2.42,7.46,6.48,9.29,10.54-.64-.27-1.41-1.95-3.27-1.84.2.43,5.28,9.36,4.33,9.55-1-1.25-3.18-2.88-4.05-3.3.95,2.83.27-.47,1.29,4.9.05.93.25,4.82.07,4.82-.71-1.66-4.22-6.35-4.26-6.37.5,3.67.94,4.42.2,8.19-.13.75-.61,3.25-.79,3.25-.35-.03-.45-3.85-2.25-5.1-.04,1.26.15,7.91-1.64,9.89-.05-1.74-.56-5.59-1.33-5.67-.08,1.59-1.02,5.92-1.59,7.11-.06-1.04-.74-3.18-1.33-3.67-.14,1.54-.76,2.7-1.53,4.07-.24.3-2.92,4.23-3.7,4.23.32-.54,1.62-3.61,1.23-4.18-.31.63-5.89,5.4-7.39,5.4.21-1.04.61-1.9.68-2.84-1.12,1.36-7.34,4.15-10.57,4.88-5.08,1.33-17.3-.12-22.62-7.54"/>
        <path class="cls-2" d="M136.35,61.59c.11,1.31,0,1.46,0,2.64-.76-.4-6.73-6.58-7.7-8.19-.11.65-.25,1.97-.18,2.62-.9.08-3.25-5.13-3.13-5.91-.62.36-.61,2.21-.67,3.71-1.78-2.32-3.9-5.9-4.19-8.35-.23-.08-1.52,1.67-1.68,2.3-.99-5.36.16-7.2,1.12-9.53-1.23.03-3.22,1.07-3.92,2.51-1.02-1.44,2.06-7.46,2.12-7.6-1.07.66-3.08,2.7-3.86,3.2.2-2.06,1.59-4.82,2.85-6.32-.54-.23-2.43.1-2.1-.07,1.39-2.4,5.84-6.01,8.06-6.76-.82-.09-2.21.07-3.19.13.25-1.17,4.6-3.96,5.97-4.68-.93-.41-3.1-1.29-3.71-1.7,1.05-.29,2.49-1.21,4.89-.89-.77-.9-1.15-1.19-1.97-2.82,2.21-.3,4.06.09,5.24.96.33-1.2,1.3-3.21,1.89-4.4.63,1.5.78,2.01,1.43,3.44,5.94-3.07,10.56-5.29,15.1-6.55,3.33-.92,6.54-1.43,10.44-.88,2.31.49,6.41,2.18,10.44,4.25,3.13,1.59,4.71,3.22,4.98,3.25.3-.91.65-1.44.7-3.2,1.03.54,3.84,3.82,4.59,5.59,1.42-1.49,2.64-2.61,3.07-3,.4,1.03.26,2.96-.04,4.9,1.22.25,2.71,1.26,3.32,2.07-.14.02-2.18.39-2.2.44,2.28,1.33,3.73,2.37,3.73,2.51-.58.03-1.57.01-2.15.04,3.3,2.42,7.46,6.48,9.29,10.54-.64-.27-1.41-1.95-3.27-1.84.2.43,5.28,9.36,4.33,9.55-1-1.25-3.18-2.88-4.05-3.3.95,2.83.27-.47,1.29,4.9.05.93.25,4.82.07,4.82-.71-1.66-4.22-6.35-4.26-6.37.5,3.67.94,4.42.2,8.19-.13.75-.61,3.25-.79,3.25-.35-.03-.45-3.85-2.25-5.1-.04,1.26.15,7.91-1.64,9.89-.05-1.74-.56-5.59-1.33-5.67-.08,1.59-1.02,5.92-1.59,7.11-.06-1.04-.74-3.18-1.33-3.67-.14,1.54-.76,2.7-1.53,4.07-.24.3-2.92,4.23-3.7,4.23.32-.54,1.62-3.61,1.23-4.18-.31.63-5.89,5.4-7.39,5.4.21-1.04.61-1.9.68-2.84-1.12,1.36-7.34,4.15-10.57,4.88-5.08,1.33-17.3-.12-22.62-7.54"/>
        <path class="cls-4" d="M152.54,67.27c-5.51-.87-6.19-3.85-8.33-9.28-1.39-5.29-2.89-13.22,1.66-17.17,2.19-.94,4.43,1.65,7.68,1.44.06-.95.03-1.96-.45-2.72-2.12-.98-5.31.25-6.95-.1-1.3-2.59-1.12-3.74.53-5.85,1.49-1.06,2.39-.97,4.12-.56,4.08,2.68,3.64,2.56,7.85-.18,3.05-.87,4.14,0,4.99,2.93.15,1.58-.01,3-1.4,3.83-2.13.49-5.3-.95-6.64.24-.42.43-.3,1.48-.04,2.16,3.39.65,5.14-2.83,8.13-.49,1.73,2.44,1.87,4.6,1.63,6.85-.39,3.63-1.01,7.65-2.66,10.72-.9,1.68-1.53,3.04-2.64,4.56,10.37-9.67,9.02-19.55,8.66-21.73-.64-3.55-1.11-5.4-3.1-8.44-.75-1.01-1.91-2.11-2.89-3.04.4-3.14,4.58-8.35,7.24-9.48,6.35,3.7,8.86,7.37,10.46,11.44,2.36,9.29.24,16.09-8.38,16.05-2.71,7.88-7.42,16.13-15.6,18.72-1.3.03-2.59.05-3.88.09"/>
        <path class="cls-4" d="M152.54,67.27c-5.51-.87-6.19-3.85-8.33-9.28-1.39-5.29-2.89-13.22,1.66-17.17,2.19-.94,4.43,1.65,7.68,1.44.06-.95.03-1.96-.45-2.72-2.12-.98-5.31.25-6.95-.1-1.3-2.59-1.12-3.74.53-5.85,1.49-1.06,2.39-.97,4.12-.56,4.08,2.68,3.64,2.56,7.85-.18,3.05-.87,4.14,0,4.99,2.93.15,1.58-.01,3-1.4,3.83-2.13.49-5.3-.95-6.64.24-.42.43-.3,1.48-.04,2.16,3.39.65,5.14-2.83,8.13-.49,1.73,2.44,1.87,4.6,1.63,6.85-.39,3.63-1.01,7.65-2.66,10.72-.9,1.68-1.53,3.04-2.64,4.56,10.37-9.67,9.02-19.55,8.66-21.73-.64-3.55-1.11-5.4-3.1-8.44-.75-1.01-1.91-2.11-2.89-3.04.4-3.14,4.58-8.35,7.24-9.48,6.35,3.7,8.86,7.37,10.46,11.44,2.36,9.29.24,16.09-8.38,16.05-2.71,7.88-7.42,16.13-15.6,18.72-1.3.03-2.59.05-3.88.09"/>
        <path class="cls-4" d="M134.85,47.7c-2.3-.63-3.93-1.66-4.88-3.24-2.03-4.27-1.65-7.28-1.03-11.67.82-6.42,7.94-10.99,9.63-11.81,2.2-.85,2.6-.66,3.21-.02,1.84,2.03,5.22,6.85,5.07,9.48-4.56,4.56-4.76,8.3-6.32,14.71-.32.59-.63,1.18-.95,1.78-1.34.66-2.77.94-4.72.78"/>
        <path class="cls-4" d="M134.85,47.7c-2.3-.63-3.93-1.66-4.88-3.24-2.03-4.27-1.65-7.28-1.03-11.67.82-6.42,7.94-10.99,9.63-11.81,2.2-.85,2.6-.66,3.21-.02,1.84,2.03,5.22,6.85,5.07,9.48-4.56,4.56-4.76,8.3-6.32,14.71-.32.59-.63,1.18-.95,1.78-1.34.66-2.77.94-4.72.78"/>
        <path class="cls-2" d="M149.72,63.11c-.39-.56-1.07-1.84-2.11-5.06-.35-2.68-.32-3.19-.34-3.98,1.25.36,3.29,3.32,3.82,4.55-.09-.03.24-2.65.42-2.86,1.09,1.11,1.18,1.99,1.41,2.3.13-.53.59-1.99.91-2.33.37-.1.92,2.06.88,2.54.05-.05,1.15-2.41,1.38-2.45.35,0,.35,2.31.43,2.64.49-.61,3.26-4.55,3.86-4.55.2,3.09-.96,5.86-2.8,9.13-3.5-1.19-5.18-.7-7.86.06"/>
        <path class="cls-4" d="M135.07,47.7c-2.3-.63-3.93-1.66-4.89-3.25-2.03-4.28-1.65-7.29-1.03-11.69.82-6.43,7.96-11.01,9.64-11.83,2.2-.86,2.6-.66,3.21-.02,1.84,2.04,5.23,6.86,5.08,9.49-4.56,4.56-4.76,8.31-6.33,14.73-.32.59-.63,1.19-.95,1.78-1.35.66-2.78.94-4.73.78"/>
        <path class="cls-4" d="M135.07,47.7c-2.3-.63-3.93-1.66-4.89-3.25-2.03-4.28-1.65-7.29-1.03-11.69.82-6.43,7.96-11.01,9.64-11.83,2.2-.86,2.6-.66,3.21-.02,1.84,2.04,5.23,6.86,5.08,9.49-4.56,4.56-4.76,8.31-6.33,14.73-.32.59-.63,1.19-.95,1.78-1.35.66-2.78.94-4.73.78"/>
      </g>
    </g>
    <g class="cls-8">
      <g>
        <path class="cls-5" d="M98.58,29.72c-.46-2.28-.99-3.42-2.46-5.31-2.03-2.58-5.24-4.41-8.58-4.88l-.19-.02c-6.18-.28-11.24,2.36-15.68,4.7.16-.96.48-1.93.85-3.01.7-2.07,1.48-4.42,1.12-7.21l-.1-.76-.48-.59c-2.45-3.03-5.79-4.74-8.74-6.25-.96-.49-1.96-1-2.92-1.55l-.13-.07C56.67,2.55,52.14.52,47.09.05l-.47-.05-.46.12c-1.44.36-2.96.66-4.47.96-4.97.97-10.56,2.06-14.87,6.21-1.89.12-3.74.94-5.11,2.31l-.23.27c-2.71,3.51-1.73,6.84-.74,9.26-1.59-.96-3.54-1.47-5.64-1.47-2.68,0-5.59.83-7.79,2.23C2.56,22.6.96,27.56.17,31.07l-.05.31c-.76,7.22,2.08,13.54,8.43,18.8,1.11,1.26,2.66,1.61,3.83,1.86-.46.81-.96,1.62-1.45,2.41-2.37,3.81-5.06,8.14-4.24,14.01,1.67,10.36,12.86,14.73,19.51,16.42,2.25,1,3.95,3.14,5.92,5.62,2.68,3.36,5.71,7.17,10.83,8.19,1.49.5,2.97.76,4.42.76,6.7,0,11.38-5.43,15.15-9.81,1.07-1.24,2.07-2.41,3.11-3.46,2.16-2.27,5.27-2.51,8.86-2.79,4.05-.31,8.64-.67,12.19-4.35l.05-.06c3.99-4.48,4.45-11.14,1.36-19.81-.24-1.25-.93-2.26-1.5-3.08-.14-.19-.25-.36-.34-.51,5.8-4.56,14.66-13.71,12.35-25.87"/>
        <path class="cls-12" d="M84.58,54.29c5.41-4.16,14.15-12.82,12-24.17-.4-1.98-.78-2.81-2.07-4.45-1.71-2.18-4.4-3.72-7.27-4.12-5.62-.26-10.22,2.15-14.66,4.47-.56.3-1.13.59-1.69.88-.66-.64-1.12-1.25-1.37-1.83.06-1.58.54-3.01,1.05-4.53.65-1.95,1.33-3.97,1.03-6.3l-.03-.19-.12-.15c-2.18-2.7-5.18-4.23-8.08-5.72-.99-.5-2-1.03-3.01-1.6-4.41-2.13-8.76-4.08-13.47-4.53h-.12s-.11.02-.11.02c-1.51.38-3.07.69-4.58.98-5.15,1-10.47,2.04-14.41,6.25-1.63-.12-3.31.51-4.52,1.72l-.06.07c-2.3,2.99-1.15,5.67-.14,8.04.7,1.63,1.36,3.18,1.11,4.87-1.45-.85-2.87-1.87-4.24-3.05l-.08-.06c-1.28-.79-2.89-1.21-4.65-1.21-2.33,0-4.86.73-6.74,1.94-4.09,2.3-5.5,6.74-6.21,9.88v.08c-.7,6.55,1.94,12.32,7.83,17.13.68.87,1.85,1.12,2.88,1.34.81.17,1.64.35,1.88.77.17.31.06.84-.07,1.24-.61,1.17-1.33,2.33-2.03,3.45-2.3,3.69-4.67,7.51-3.96,12.61,1.5,9.29,11.99,13.26,18.15,14.81,2.79,1.18,4.77,3.66,6.85,6.28,2.6,3.27,5.29,6.65,9.77,7.49,1.32.46,2.63.69,3.89.69,5.77,0,9.92-4.83,13.59-9.09,1.09-1.27,2.12-2.47,3.19-3.55,2.7-2.84,6.34-3.12,10.18-3.42,3.87-.3,7.87-.61,10.87-3.73,3.48-3.9,3.78-9.94.9-17.94-.12-.88-.67-1.67-1.2-2.44-1.06-1.54-1.34-2.15-.32-2.96"/>
        <path class="cls-12" d="M93.98,26.09c1.22,1.56,1.56,2.31,1.94,4.16,1.85,9.74-4.69,18.06-11.75,23.49-2.53,2,1.04,4.02,1.26,6.1,1.86,5.13,3.5,12.57-.74,17.33-5.65,5.87-15.32,1.11-21.04,7.13-5.5,5.57-10.71,15.02-20,11.75-7.73-1.42-9.96-11.01-16.58-13.76-7.14-1.78-16.36-5.95-17.7-14.27-.89-6.39,3.35-10.71,5.95-15.69,1.27-3.72-3.49-2.23-4.83-4.09-5.13-4.17-8.4-9.52-7.66-16.59.82-3.64,2.31-7.43,5.88-9.44,2.9-1.86,7.58-2.68,10.7-.74,1.64,1.41,3.35,2.6,5.13,3.57,1.64-5.06-4.61-8.7-.89-13.54,1.19-1.19,2.83-1.71,4.31-1.48,4.91-5.5,12.12-5.58,18.89-7.29,4.68.45,9.07,2.45,13.23,4.46,3.72,2.16,8.03,3.64,10.86,7.14.52,3.94-2,6.99-2.08,10.86.38.96,1.19,1.85,1.94,2.52,5.13-2.6,10.11-5.8,16.43-5.5,2.6.37,5.13,1.78,6.76,3.86"/>
        <path class="cls-9" d="M24.53,27.36v9.15l3.42,3.57c-3.94,2.75-7.58,6.84-7.14,11.59.22.3.74.08,1.04.15,1.78-2.38,2.15-5.58,5.06-7.14l3.87-2.31c7.21,5.13,18.07,5.65,25.57.67,4.31-2.53,8.11-6.17,11.23-9.81.52-.74.37-1.86.89-2.68,1.27-.08.82,2.15,2.31,1.11,3.35-4.01,7.88-5.87,12.49-7.14,2.75-.3,5.8-.44,7.88,1.42,2.97,2.83,3.27,7.29,2.46,11.23-2.75,6.17-6.32,12.79-12.86,15.69l-1.04,1.63c-1.34-3.12-2.24-6.39-4.09-9.3-1.04.38-1.78,1.49-2,2.53-6.4-2.23-11.23,3.79-15.32,8.4-1.2,1.42-2.83,2.68-4.83,2.68-1.05-.38-1.64-1.49-2.17-2.38-.96-4.54,2.17-8.48,5.36-10.85.52,0,.89-.38,1.26-.52-.82-.67-2.16-.3-3.05,0-3.27,1.71-6.32,5.13-6.92,8.7-.74-1.04-1.34-2.75-2.9-3.34-1.04-.07-2.23-.15-2.67,1.04-.59,3.05,4.53,2.45,3.05,5.58-3.72,3.35-9.21.52-13.16-.74-3.27-1.42-5.2-4.31-8.03-5.88-1.19.74-.82,2.6-.37,3.57,2.23,1.48,2.08,4.23,3.57,6.25,2.61,3.34,6.47,4.39,10.34,4.09-2.97,1.79-7.59,1.93-10.71.52v.37c3.42,1.56,6.69,5.13,10.71,3.57,4.23-2.9,8.48-6.84,9.96-11.6.96,2.67,3.49,4.46,6.25,5.2,2.75,2.9,3.56,6.69,4.16,10.48.15.96-2,1.79-.22,2.53,1.26-.45,1.78-1.79,2.16-2.9.45-2.38-1.49-3.86-1.64-6.02,3.28,2.45,8.7,2.23,11.97.14.37-.59,1.12-.52,1.26-1.26-2.83,1.48-6.99,1.26-9.81-.52v-.37c3.42.52,7.43-.37,9.67-3.2,2.45-2.75,1.93-7.14,1.78-10.49,2.37-1.19,2.83,2.09,3.71,3.34,1.12,6.54,6.77,16.29-.74,21.26,2.31.3,3.87-2,5.05-3.79,1.79-5.57-1.04-10.93-1.11-16.21,1.04.67,2.08,2.68,2.9,4.09,1.41,4.61,2.6,10.93.3,15.39-4.83,4.31-12.64,2.31-18,5.87-6.53,3.64-8.99,13.68-17.47,13.76-9.96,1.94-12.49-9.67-18.96-14.65-6.47-.37-12.64-3.65-16.21-9.14-2.68-5.95-.23-11.3,4.09-15.69.22-2.08,2.82-5.13-.15-6.61-4.68-1.41-9.96-5.2-11.08-10.33-.96-4.39-.81-9.15,1.94-12.49,1.93-2.83,6.09-3.5,9.51-2.83,2.82.74,5.2,3.35,7.43,4.61"/>
        <path class="cls-2" d="M36.35,62.99c.55-.97,2.06-1.37,2.15-2.97,1.17.18,2.32.22,3.54.22-1.17,1.77-2.22,1.77-4.08,2.41-.71.25-1.07.47-1.61.34h0Z"/>
        <path class="cls-2" d="M33.15,62.54c-4.03-.27-5.65-5.03-5.42-5.82.7.44,2.11.92,3.01,1.36.47,2.17,1.47,3.49,2.41,4.46h0Z"/>
        <path class="cls-2" d="M34.64,61.12c-.64-.59-.71-.88-.45-1.91.42,0,1.13.26,1.55.31.41.83.12,1.93-1.11,1.6h0Z"/>
        <path class="cls-9" d="M67.36,15.98l-.3,1.04c-10.11,6.77-25.06,11.45-36.28,4.31-1.86-1.27-3.27-2.9-4.24-4.83,1.19-7.14,8.92-8.62,14.28-10.93-.08,1.27-.82,2.68,0,3.79,2.23,2.75,5.57,2.23,8.7,1.78,1.42-1.11,3.13-2.53,2.16-4.46l-1.41-1.41c6.17,2.37,14.5,3.79,17.1,10.71"/>
        <path class="cls-7" d="M18.51,28.47c1.34,2.38,2.46,5.13,2.46,7.81-1.93.07-1.27,2.75-3.2,2.68-1.19.81.07,2.15-.37,3.05l-.15,2.83h-1.05c-.81-1.19-3.87-1.93-2.67-4.09,2.15-3.19,1.93-8.25.14-11.6-.89-2.08-3.12-2.53-4.98-3.05-.3-.96.37-1.19,1.04-1.56,3.86-.89,6.77,1.04,8.77,3.94"/>
        <path class="cls-7" d="M91.45,28.47c.15.45.38.97,0,1.42-1.04.22-.97-1.34-1.93-1.26-4.83,1.26-5.95,6.91-7.29,11.08-.82,3.19-.67,6.98-1.12,10.18-1.63-2.83-.6-7.29-.89-10.56-1.05.07-1.12,1.41-1.79,1.78-.59-1.64,1.19-3.2.52-4.61-.97-.08-1.56.74-2.45.89,1.86-4.39,6.17-9.3,10.71-10.93,1.86-.45,3.49.59,4.23,2"/>
        <path class="cls-7" d="M20.82,53.23c-1.49,2.9-1.78,6.39-4.61,8.55.74-3.05,1.12-6.77,3.35-9.44.74-.14,1.19.23,1.27.89"/>
        <path class="cls-7" d="M54.87,67.88c.3.9-.37,1.12-1.04,1.27-3.72-.44-7.74-.81-11.23.38-.96,0-1.11-1.19-.74-1.78,2.38-1.78,5.13.3,7.65-.37,1.78.3,4.32-1.71,5.35.52"/>
        <path class="cls-7" d="M53.98,71.97c1.63.74,2.08-2.15,3.27-.52-.45,1.71-1.19,3.12-2.68,4.09-.97.38-1.79-.45-2.01-1.26-1.2.59-2.31,1.41-3.35,2.37l.15,5.88c1.26,1.71,3.57,1.27,5.35,1.05,4.76-2.17,8.48-6.03,12.64-9.07.74-.45,1.71-.15,2.38-.75-.45-.81-2.75-.96-1.64-2.3.82-.82,1.94,0,2.83,0,1.04.45,1.64,1.26,2.38,2.15.07.82,0,1.49-.9,1.56-.75-.82-1.63.3-2.53.23-7.66,1.49-8.84,10.19-15.02,13.38-3.05,1.86-8.03,2.45-11.6.9-7.06-2.09-8.26-10.26-13.54-14.5-1.93-1.41-2.6,2.09-4.09.23-.67-1.49.23-2.75,1.27-3.79,1.26-.67,2.38-1.63,4.09-1.18.52.21.29.81.37,1.18-.59.75-2.16.08-2.01,1.27,3.5.74,3.8,4.61,6.76,6.47,3.05,2.53,6.7,3.94,10.71,3.57,1.19-1.93.37-4.6,1.64-6.47,0-.96-1.04-.81-1.64-1.26-1.56.67-3.05,1.12-4.61,0-.96-1.04-2.3-1.34-2.67-2.82-.08-.67,0-1.42.74-1.63,1.27,2.08,3.05-.08,4.61-.15,3.35-.3,6.39-.37,9.07,1.41"/>
        <path class="cls-5" d="M48.1,29.89c.96,4.16,2.01,8.4,2.89,12.64-.59.3-1.41.52-2.01.22-.14-1.71-.59-3.42-1.41-4.68l-4.98-.37-1.41,5.06-1.64-.22c1.03-4.31,1.64-8.85,3.41-12.87l5.14.22h0ZM44.53,31.67c-.59,1.2-.97,2.68-1.04,3.94l3.94.15v-.37c-.81-1.34.37-5.13-2.9-3.72"/>
        <path class="cls-5" d="M46.69,86.98c.89.22,2.01-.22,1.78-1.26.15-.52-.37-1.56.52-1.64,1.34.74,3.79,1.12,3.57,3.27-3.72,1.05-6.4.6-10.18-.59-.74-.45-.08-1.19.37-1.56,1.05-.9,2.31-1.27,3.8-1.12l.15,2.9Z"/>
        <path class="cls-2" d="M48.97,42.89c-.48-1.62-.91-3.25-1.34-4.82-1.82,0-3.28-.3-5.04-.24-.38,1.46-1.1,3.28-1.42,4.74-.8,0-1.58.05-1.96-.16.74-3.61,3.05-10.36,3.49-12.7,1.98-.11,3.72.07,5.52.19.85,3.68,2.06,8.37,2.86,12.69-.27.3-1.74.3-2.12.3h0Z"/>
        <path class="cls-4" d="M43.35,35.77c.31-1.35.73-3.01,1.15-4.2.7,0,1.15.06,1.9.06.35.79.73,2.95.97,4.34-1.08,0-2.9-.03-4.01-.19h0Z"/>
        <path class="cls-2" d="M61.88,62.53c-1.89-.66-4.16-1.36-4.84-2.89,1.51-.99,3.07-2.45,4.51-3.68.92,4.21,6.48,3.56,7.71.49,1.14-2.44-.13-4.2-1.86-5.35,1.14-.62,3.21-1.46,3.59-.65,2.09,2.96,1.67,7.47-.67,9.9-2.04,1.73-4.62,2.93-8.46,2.18h0Z"/>
        <path class="cls-2" d="M64.35,55.68c-.4-.76-.1-1.18.08-1.59.44-.46.94-.64,1.38-.18.44.12.71.87.23,1.44-.29.47-1.09.32-1.69.33Z"/>
        <path class="cls-3" d="M44.62,9.87c-.9-.26-2.64-1.04-2.64-2.28.1.84,5.85,2.51,6.01,2.02-.71.5-2.13.44-3.37.26Z"/>
      </g>
    </g>
  </g>
</svg>