<?xml version="1.0" encoding="UTF-8"?>
<svg id="Layer_2" data-name="Layer 2" xmlns="http://www.w3.org/2000/svg" viewBox="0 0 32 32">
  <defs>
    <style>
      .cls-1 {
        fill: #347f6f;
      }

      .cls-2 {
        fill: none;
        stroke: #f4efe6;
        stroke-miterlimit: 10;
        stroke-width: .5px;
      }

      .cls-3 {
        fill: #f4efe6;
      }
    </style>
  </defs>
  <g id="Layer_1-2" data-name="Layer 1">
    <g id="Layer_2-2" data-name="Layer 2">
      <g id="uuid-32d1a030-f4e2-412e-bc0d-3cdaeb126616" data-name="Layer 1-2">
        <path class="cls-1" d="M16,0C7.17,0,0,7.16,0,16c0,8.84,7.16,16,16,16,8.84,0,16-7.16,16-16h0C32,7.16,24.84,0,16,0ZM16,30.54c-8.03,0-14.54-6.51-14.54-14.54S7.97,1.45,16,1.45s14.54,6.51,14.54,14.54-6.51,14.54-14.54,14.54h0Z"/>
        <path class="cls-1" d="M30.1,16c0,.25-.6.49-.61.73s.55.55.55.79-.65.42-.69.66.49.61.44.85-.69.34-.75.58.42.65.34.89-.72.27-.81.49.35.69.25.92-.74.19-.86.4.28.73.15.94-.76.1-.9.31.19.75.04.95-.77,0-.93.21.11.77-.06.95-.77-.06-.95.11.01.79-.19.95-.76-.15-.95,0-.05.78-.26.92-.73-.22-.95-.09-.14.77-.35.88-.71-.3-.94-.2-.22.75-.45.84-.67-.38-.91-.3-.3.72-.54.79-.63-.45-.87-.4-.37.68-.62.72-.57-.49-.82-.49-.45.64-.7.65-.49-.57-.76-.57-.49.59-.76.57-.45-.63-.7-.65-.58.53-.82.49-.38-.67-.62-.72-.63.46-.87.4-.31-.71-.54-.79-.68.39-.91.3-.23-.74-.45-.84-.71.31-.94.2-.14-.75-.36-.88-.74.24-.94.09-.06-.77-.26-.92-.76.15-.95,0,0-.77-.16-.94-.78.07-.95-.11.1-.76-.06-.95-.78,0-.93-.21.19-.75.04-.95-.75-.1-.87-.31.27-.72.15-.94-.77-.17-.88-.4.34-.69.25-.92-.73-.26-.81-.49.41-.65.34-.89-.7-.33-.75-.58.49-.6.44-.85-.66-.41-.71-.66.57-.54.55-.79-.62-.49-.62-.74.6-.49.62-.73-.55-.55-.55-.79.65-.42.69-.66-.49-.61-.44-.85.69-.34.75-.58-.42-.65-.34-.89.72-.27.81-.49-.35-.69-.25-.92.75-.19.88-.41-.28-.73-.15-.94c.13-.21.76-.1.9-.31s-.19-.75-.04-.95.77,0,.93-.21-.11-.77.06-.95.77.06.95-.11-.03-.78.17-.94.76.15.95,0c.2-.15.05-.78.26-.92s.73.22.95.09.13-.77.35-.89.71.31.94.2.22-.75.45-.84.67.38.91.3.3-.72.54-.79.63.45.87.4.37-.68.62-.72.57.49.82.49.45-.64.7-.65.49.57.76.57.49-.59.76-.57.45.62.68.64.58-.53.82-.49.38.67.62.72.63-.46.87-.4.31.71.54.79.68-.39.91-.3.23.74.45.84.71-.31.94-.2.14.75.35.88.74-.24.95-.09.06.76.26.92.76-.15.95,0,0,.77.16.94.78-.07.95.11-.1.76.06.95.78,0,.93.21-.19.75-.04.95.77.1.9.31-.27.72-.15.94.76.18.86.4-.34.69-.25.92.73.26.81.49-.41.65-.34.89.7.33.75.58-.49.6-.44.85.66.41.69.66-.55.54-.53.79.61.5.61.74Z"/>
        <path class="cls-3" d="M16,31.5c-8.56.01-15.5-6.92-15.51-15.47,0-4.12,1.63-8.08,4.55-10.99,6.05-6.05,15.87-6.05,21.93,0,6.05,6.05,6.05,15.87,0,21.93-2.9,2.92-6.85,4.55-10.97,4.54ZM16,.91C7.67.91.92,7.66.92,16s6.76,15.09,15.09,15.09,15.09-6.76,15.09-15.09c-.01-8.33-6.76-15.08-15.09-15.08h0Z"/>
        <path class="cls-2" d="M10.12,18.87v2.46h1.57v-12.45h1.84v13.09c-.01.67-.56,1.21-1.23,1.21h-2.79c-.67,0-1.21-.54-1.23-1.21v-3.11h1.84Z"/>
        <path class="cls-2" d="M21.44,23.18v-7.72l-1.52,4.65h-1.48l-1.39-4.66v7.73h-1.93v-14.27h1.84l2.19,7.15,2.27-7.15h1.84v14.27h-1.82Z"/>
        <path class="cls-3" d="M9.5,17.78v2.46h1.56V7.81h1.84v13.09c-.02.65-.55,1.17-1.2,1.18h-2.8c-.67,0-1.21-.54-1.23-1.21v-3.1h1.84Z"/>
        <path class="cls-3" d="M20.82,22.08v-7.71l-1.52,4.66h-1.48l-1.39-4.66v7.71h-1.91V7.81h1.84l2.19,7.15,2.27-7.15h1.84v14.27h-1.84Z"/>
        <path class="cls-1" d="M7.12,12.87l.05.29h-.12l-.03-.16h-.11l.16.85h.07l.02.12-.29.05v-.12h.08l-.16-.85h-.1l.03.16-.13.02-.05-.28.57-.08Z"/>
      </g>
    </g>
  </g>
</svg>