<svg width="213" height="60" viewBox="0 0 213 60" fill="none" xmlns="http://www.w3.org/2000/svg">
<path d="M133.46 3.63128C132.815 3.63128 132.483 4.22718 132.483 5.41899V6.12662C132.483 7.0391 133.128 7.87709 134.456 8.65921C136.299 9.75791 137.516 10.6518 138.124 11.3408C139.47 12.905 140.134 15.0652 140.134 17.8212C140.134 21.6946 137.885 23.6313 133.405 23.6313C131.192 23.6313 129.588 23.2216 128.63 22.3836C127.597 21.4711 127.081 19.9255 127.081 17.7281V14.8976H132.483C132.483 15.1583 132.464 15.5493 132.428 16.0708C132.391 16.5922 132.372 16.9832 132.372 17.2439C132.372 19.0875 132.741 20 133.478 20C134.216 20 134.566 19.2924 134.566 17.8771C134.566 16.9087 134.456 16.1452 134.197 15.6052C133.939 15.0652 133.423 14.5438 132.63 14.0037C130.566 12.6257 129.367 11.7505 129.054 11.4153C127.763 10.0186 127.118 8.10055 127.118 5.64245C127.118 1.88081 129.238 0.0186157 133.46 0.0186157C136.078 0.0186157 137.811 0.577275 138.659 1.67597C139.396 2.60707 139.747 4.43202 139.747 7.13221H134.585V6.42457V5.73556C134.585 4.33891 134.216 3.63128 133.46 3.63128Z" fill="#E87722"/>
<path d="M146.808 10.0372H147.859C148.818 10.0372 149.297 9.55307 149.297 8.60335V5.40037C149.297 4.45065 148.818 3.9851 147.859 3.9851H146.808V10.0372ZM141.259 0.0186157H148.873C152.56 0.0186157 154.404 1.82495 154.404 5.40037V8.30539C154.404 10.8752 153.722 12.514 152.376 13.2588C151.509 13.743 149.647 13.9851 146.808 13.9851V23.6127H141.259V0.0186157Z" fill="#E87722"/>
<path d="M161.299 18.324C161.299 19.311 161.668 19.8138 162.405 19.8138C163.142 19.8138 163.511 19.311 163.511 18.324V5.32588C163.511 4.33891 163.142 3.83612 162.405 3.83612C161.668 3.83612 161.299 4.33891 161.299 5.32588V18.324ZM155.528 7.0391C155.528 4.65549 156.081 2.8864 157.188 1.73184C158.294 0.577275 160.045 0.0186157 162.405 0.0186157C164.783 0.0186157 166.516 0.577275 167.623 1.73184C168.729 2.86778 169.282 4.63687 169.282 7.0391V16.6108C169.282 18.9944 168.729 20.7635 167.623 21.9181C166.516 23.054 164.783 23.6313 162.405 23.6313C160.045 23.6313 158.294 23.054 157.188 21.9181C156.081 20.7821 155.528 19.013 155.528 16.6108V7.0391Z" fill="#E87722"/>
<path d="M176.233 9.05027H176.694C177.892 9.05027 178.501 8.51024 178.501 7.39292V5.43761C178.501 4.33891 177.892 3.78025 176.694 3.78025H176.233V9.05027ZM170.684 0.0186157H177.063C179.975 0.0186157 181.838 0.428299 182.667 1.26629C183.497 2.10428 183.902 3.9851 183.902 6.92737C183.902 8.24953 183.644 9.23649 183.11 9.88826C182.575 10.54 181.653 10.9497 180.363 11.0987C181.745 11.2849 182.722 11.6946 183.276 12.3277C183.847 12.9795 184.124 13.9851 184.124 15.3631V23.6313H178.501V14.6741C178.501 13.3147 177.984 12.6257 176.97 12.6257H176.251V23.6313H170.702V0.0186157H170.684Z" fill="#E87722"/>
<path d="M188.161 4.78584H184.584V0.0186157H197.747V4.78584H194.171V23.6313H188.161V4.78584Z" fill="#E87722"/>
<path d="M204.827 3.63129C204.182 3.63129 203.85 4.22719 203.85 5.419V6.12663C203.85 7.03911 204.514 7.8771 205.823 8.65922C207.667 9.75792 208.883 10.6518 209.492 11.3408C210.838 12.905 211.501 15.0652 211.501 17.8212C211.501 21.6946 209.27 23.6313 204.772 23.6313C202.56 23.6313 200.974 23.2216 199.997 22.3836C198.983 21.4711 198.467 19.9255 198.467 17.7281V14.8976H203.869C203.869 15.1583 203.85 15.5494 203.813 16.0708C203.776 16.5922 203.758 16.9832 203.758 17.244C203.758 19.0875 204.108 20 204.846 20C205.583 20 205.952 19.2924 205.952 17.8771C205.952 16.9088 205.823 16.1453 205.565 15.6052C205.325 15.0652 204.79 14.5438 204.016 14.0037C201.933 12.6071 200.734 11.7318 200.421 11.3967C199.13 10 198.485 8.08194 198.485 5.62384C198.485 1.88082 200.605 0 204.846 0C207.464 0 209.197 0.558659 210.045 1.65736C210.782 2.58845 211.133 4.41341 211.133 7.1136H205.952V6.42458V5.73557C205.97 4.33892 205.583 3.63129 204.827 3.63129Z" fill="#E87722"/>
<path d="M31.5631 3.63128C30.8809 3.63128 30.5491 4.22718 30.5491 5.40037V6.08938C30.5491 7.00186 31.2312 7.83985 32.614 8.62197C34.5313 9.72066 35.8034 10.6145 36.4303 11.3035C37.8314 12.8678 38.5136 15.0093 38.5136 17.7654C38.5136 21.6201 36.1906 23.5568 31.5262 23.5568C29.2217 23.5568 27.5624 23.1471 26.5668 22.3277C25.4975 21.4153 24.9629 19.8696 24.9629 17.6722V14.8603H30.586C30.586 15.121 30.5675 15.5121 30.5122 16.0335C30.4753 16.5549 30.4385 16.946 30.4385 17.2067C30.4385 19.0503 30.8256 19.9628 31.5815 19.9628C32.3374 19.9628 32.7246 19.2551 32.7246 17.8398C32.7246 16.8715 32.5955 16.108 32.3374 15.5866C32.0793 15.0465 31.5262 14.5065 30.715 13.9851C28.5395 12.5884 27.3043 11.7318 26.9724 11.3966C25.6266 9.99999 24.9629 8.08193 24.9629 5.64245C24.9629 1.88081 27.1568 0.0186157 31.5815 0.0186157C34.2916 0.0186157 36.0984 0.558653 36.9833 1.65735C37.7392 2.58845 38.1264 4.39478 38.1264 7.09497H32.743V6.40595V5.71694C32.743 4.32029 32.3374 3.63128 31.5631 3.63128Z" fill="#003057"/>
<path d="M39.9512 0.0930786H45.9614V23.6313H39.9512V0.0930786Z" fill="#003057"/>
<path d="M53.7046 19.6648H54.5895C55.5297 19.6648 55.9907 19.013 55.9907 17.7281V5.97762C55.9907 4.67408 55.5297 4.02232 54.5895 4.02232H53.7046V19.6648ZM47.6943 0.0930786H55.2716C57.6499 0.0930786 59.3276 0.48414 60.3047 1.28489C61.4294 2.17874 62.0009 3.79885 62.0009 6.1266V19.1247C62.0009 22.1415 60.231 23.6499 56.6728 23.6499H47.6943V0.0930786Z" fill="#003057"/>
<path d="M69.7448 18.8827V13.7057H74.8332L75.4047 9.16198H69.7448V4.84168H75.9394L76.5293 0.0930786H63.7346H62.2412C62.2412 0.0930786 63.6608 0.893824 63.7346 2.17874V21.5642C63.6608 22.8305 62.2412 23.6499 62.2412 23.6499H63.7346H73.598L74.1879 18.9013H69.7448V18.8827Z" fill="#003057"/>
<path d="M83.7009 13.6685L82.65 4.24578L81.5992 13.6685H83.7009ZM78.2437 0.0930786H86.8904L90.0983 23.6313H84.4015L83.7931 17.2812H81.5992L80.9355 23.6313H75.2939L78.2437 0.0930786Z" fill="#003057"/>
<path d="M96.1635 9.08749H96.6244C97.8227 9.08749 98.4127 8.54746 98.4127 7.43014V5.49345C98.4127 4.39476 97.8227 3.8361 96.6244 3.8361H96.1635V9.08749ZM88.623 0.0930786H96.9747C99.8692 0.0930786 101.731 0.502762 102.561 1.34075C103.391 2.17874 103.796 4.05956 103.796 6.98321C103.796 8.30537 103.538 9.29234 103.003 9.92548C102.469 10.5773 101.565 10.9683 100.275 11.1359C101.639 11.3035 102.616 11.7132 103.188 12.365C103.759 12.9981 104.036 14.0223 104.036 15.4003V23.6499H98.4127V15.8473C98.4127 14.4879 97.8965 13.6685 96.8825 13.6685H96.1635V23.6313H91.7756L88.623 0.0930786Z" fill="#003057"/>
<path d="M105.492 0.0930786H113.494L115.061 13.3892L116.517 0.0930786H124.611V23.6313H119.522V6.14522L116.923 23.6313H113.106L110.581 6.14522V23.6313H105.492V0.0930786Z" fill="#003057"/>
<path d="M6.67383 18.5289L11.6516 23.5568L18.6021 16.5363L16.2607 14.1899L6.67383 18.5289Z" fill="#003057"/>
<path d="M4.70117 7.0391L7.04258 9.40409L16.6294 5.04655L11.6516 0.0186157L4.70117 7.0391Z" fill="#003057"/>
<path d="M6.60019 11.2849L3.5582 8.21228L0 11.7877L5.53088 17.3743L16.7033 12.2905L19.7637 15.3817L23.3035 11.7877L17.791 6.21973L6.60019 11.2849Z" fill="#E87722"/>
<path d="M20.2617 47.2626H22.4556C22.8428 47.2626 23.1931 47.2998 23.5065 47.3743C23.8199 47.4488 24.078 47.5605 24.2993 47.7281C24.5205 47.8957 24.6864 48.1006 24.8155 48.3426C24.9445 48.5847 24.9998 48.9013 24.9998 49.2365C24.9998 49.6089 24.9261 49.9255 24.797 50.1862C24.6496 50.4469 24.4652 50.6518 24.2255 50.8007C23.9859 50.9497 23.7093 51.0615 23.3959 51.1359C23.0825 51.2104 22.7506 51.2477 22.3819 51.2477H21.4601V54.0596H20.2617V47.2626V47.2626ZM22.2897 50.2235C22.4925 50.2235 22.6769 50.2048 22.8428 50.1862C23.0272 50.149 23.1747 50.1117 23.3221 50.0372C23.4696 49.9628 23.5803 49.8697 23.654 49.7393C23.7277 49.6089 23.7831 49.4413 23.7831 49.2365C23.7831 49.0317 23.7462 48.8827 23.654 48.7523C23.5803 48.622 23.4696 48.5289 23.3221 48.4544C23.1931 48.3799 23.0272 48.3426 22.8612 48.324C22.6953 48.3054 22.5109 48.2868 22.3266 48.2868H21.4601V50.2421H22.2897V50.2235Z" fill="#003057"/>
<path d="M26.5303 50.6331C26.5303 50.0931 26.6225 49.5903 26.8068 49.162C26.9912 48.7337 27.2309 48.3426 27.5627 48.0447C27.8761 47.7467 28.2633 47.5047 28.7058 47.3371C29.1482 47.1695 29.6276 47.095 30.1438 47.095C30.66 47.095 31.1578 47.1695 31.6002 47.3371C32.0427 47.5047 32.4299 47.7467 32.7433 48.0447C33.0752 48.3426 33.3148 48.7151 33.4992 49.162C33.6836 49.5903 33.7757 50.0931 33.7757 50.6331C33.7757 51.1546 33.6836 51.6387 33.4992 52.0857C33.3148 52.514 33.0752 52.905 32.7433 53.2216C32.4114 53.5382 32.0427 53.7803 31.6002 53.9665C31.1578 54.1527 30.6784 54.2272 30.1438 54.2272C29.6276 54.2272 29.1482 54.1341 28.7058 53.9665C28.2633 53.7989 27.8946 53.5382 27.5627 53.2216C27.2493 52.905 26.9912 52.5326 26.8068 52.0857C26.6225 51.6574 26.5303 51.1732 26.5303 50.6331ZM27.8392 50.6331C27.8392 51.0056 27.8946 51.3408 28.0052 51.6387C28.1158 51.9367 28.2817 52.1974 28.4845 52.4209C28.6873 52.6443 28.927 52.8119 29.222 52.9423C29.4985 53.0726 29.8119 53.1285 30.1622 53.1285C30.5125 53.1285 30.8259 53.0726 31.1025 52.9423C31.379 52.8119 31.6371 52.6443 31.8399 52.4209C32.0427 52.1974 32.2086 51.9367 32.3193 51.6387C32.4299 51.3408 32.4852 51.0056 32.4852 50.6331C32.4852 50.2793 32.4299 49.9628 32.3193 49.6462C32.2086 49.3482 32.0612 49.0875 31.8584 48.8641C31.6556 48.6406 31.4159 48.473 31.1209 48.3426C30.8259 48.2123 30.5125 48.1564 30.1807 48.1564C29.8488 48.1564 29.517 48.2123 29.2404 48.3426C28.9639 48.473 28.7242 48.6406 28.5214 48.8641C28.3186 49.0875 28.1711 49.3482 28.0605 49.6462C27.8946 49.9628 27.8392 50.2793 27.8392 50.6331Z" fill="#003057"/>
<path d="M35.0479 47.2626H36.3568L37.6658 52.2533H37.6842L39.1591 47.2626H40.3944L41.8508 52.2533H41.8693L43.1967 47.2626H44.4688L42.4961 54.041H41.3346L39.7675 48.9572H39.7491L38.182 54.041H37.0205L35.0479 47.2626Z" fill="#003057"/>
<path d="M46.0536 47.2626H50.4967V48.324H47.2335V50.0559H50.3124V51.0801H47.2335V52.9981H50.6627V54.0782H46.0352V47.2626H46.0536Z" fill="#003057"/>
<path d="M52.6543 47.2626H54.9957C55.3091 47.2626 55.6225 47.2998 55.9175 47.3557C56.2125 47.4302 56.4706 47.5419 56.7103 47.6909C56.95 47.8399 57.1343 48.0447 57.2634 48.2868C57.4109 48.5289 57.4662 48.8454 57.4662 49.1993C57.4662 49.6834 57.3371 50.0931 57.0606 50.4097C56.784 50.7263 56.4153 50.9311 55.936 51.0428L57.7243 54.0596H56.2862L54.7376 51.1918H53.8711V54.0596H52.6727V47.2626H52.6543ZM54.8298 50.1862C54.9957 50.1862 55.1801 50.1676 55.346 50.149C55.5119 50.1304 55.6778 50.0745 55.8069 50C55.936 49.9255 56.0466 49.8324 56.1388 49.7021C56.2309 49.5717 56.2678 49.4041 56.2678 49.1993C56.2678 49.013 56.2309 48.8641 56.1388 48.7523C56.065 48.6406 55.9544 48.5475 55.8253 48.473C55.6963 48.3985 55.5488 48.3613 55.4013 48.324C55.2354 48.3054 55.0879 48.2868 54.922 48.2868H53.8342V50.1862H54.8298V50.1862Z" fill="#003057"/>
<path d="M59.4384 47.2626H63.8815V48.324H60.6183V50.0559H63.6971V51.0801H60.6183V52.9981H64.0474V54.0782H59.4199V47.2626H59.4384Z" fill="#003057"/>
<path d="M66.0205 47.2626H68.3988C68.8413 47.2626 69.2837 47.3184 69.7262 47.4302C70.1687 47.5419 70.5743 47.7281 70.9246 48.0075C71.2749 48.2682 71.5698 48.622 71.7911 49.0503C72.0123 49.4786 72.1229 50.0186 72.1229 50.6518C72.1229 51.2477 72.0123 51.7505 71.7911 52.1788C71.5698 52.6071 71.2749 52.9609 70.9246 53.2402C70.5743 53.5196 70.1687 53.7244 69.7262 53.8548C69.2837 53.9851 68.8413 54.0596 68.3988 54.0596H66.0205V47.2626ZM68.2144 52.9981C68.5278 52.9981 68.8413 52.9609 69.1362 52.8864C69.4497 52.8119 69.7262 52.6816 69.9843 52.514C70.2424 52.3464 70.4452 52.1043 70.5927 51.8063C70.7586 51.5084 70.8324 51.1173 70.8324 50.6704C70.8324 50.1862 70.7586 49.7952 70.5927 49.4786C70.4268 49.1806 70.224 48.9386 69.9843 48.7523C69.7262 48.5847 69.4497 48.4544 69.1362 48.3985C68.8228 48.3426 68.5094 48.3054 68.2144 48.3054H67.2189V52.9981H68.2144Z" fill="#003057"/>
<path d="M77.2666 47.2626H79.8846C80.1427 47.2626 80.3823 47.2998 80.6404 47.3557C80.8801 47.4115 81.1013 47.5233 81.3041 47.6536C81.4885 47.784 81.6544 47.9702 81.7835 48.1937C81.8941 48.4171 81.9679 48.6778 81.9679 48.9758C81.9679 49.3669 81.8572 49.6834 81.636 49.9255C81.4148 50.1676 81.1382 50.3538 80.7879 50.4656V50.4842C81.212 50.54 81.5623 50.7076 81.8388 50.987C82.1153 51.2663 82.2444 51.6387 82.2444 52.0857C82.2444 52.4581 82.1707 52.7747 82.0232 53.0168C81.8757 53.2775 81.6913 53.4637 81.4516 53.6313C81.212 53.7803 80.9354 53.892 80.6404 53.9665C80.327 54.041 80.0136 54.0596 79.7002 54.0596H77.285V47.2626H77.2666ZM78.465 50.0186H79.5343C79.9399 50.0186 80.2348 49.9441 80.4376 49.7765C80.6404 49.6089 80.7511 49.3855 80.7511 49.0875C80.7511 48.7896 80.6404 48.5661 80.4376 48.4358C80.2164 48.3054 79.8846 48.2495 79.4237 48.2495H78.465V50.0186ZM78.465 53.0354H79.5343C79.6818 53.0354 79.8477 53.0168 80.032 52.9981C80.2164 52.9795 80.3639 52.9237 80.5298 52.8678C80.6773 52.7933 80.8064 52.7002 80.8986 52.5698C80.9907 52.4395 81.046 52.2533 81.046 52.0298C81.046 51.676 80.9354 51.4153 80.6773 51.2849C80.4376 51.1359 80.0689 51.0801 79.5896 51.0801H78.465V53.0354Z" fill="#003057"/>
<path d="M85.8393 51.0987L83.3135 47.2626H84.7699L86.4661 50.1117L88.1807 47.2626H89.5634L87.0376 51.0987V54.041H85.8393V51.0987V51.0987Z" fill="#003057"/>
<path d="M123.357 46.6853H121.956V54.6183H128.151V53.2216H123.357V46.6853Z" fill="#003057"/>
<path d="M129.976 54.6183H136.17V53.203H131.377V51.3594H134.787V49.9442H131.377V48.8082C131.377 48.4172 131.063 48.1006 130.676 48.1006H136.17V46.6853H129.976V54.6183Z" fill="#003057"/>
<path d="M140.558 46.6853L137.793 54.6183H139.268L141.554 48.1006L142.679 51.3594H141.185L140.687 52.7747H143.176L143.822 54.6183H145.315L142.55 46.6853H140.558Z" fill="#003057"/>
<path d="M153.131 49.9628V48.1006C153.131 47.3185 152.504 46.6853 151.73 46.6853H146.937V54.6183H148.338V51.3594H150.513L152.007 54.6183H153.537L152.025 51.3222C152.67 51.1918 153.131 50.6332 153.131 49.9628ZM151.73 49.9442H148.338V48.8082C148.338 48.4172 148.024 48.1006 147.637 48.1006H151.73V49.9442Z" fill="#003057"/>
<path d="M155.805 54.6183H157.206V51.3594H160.598V49.9442H157.206V48.8082C157.206 48.4172 156.892 48.1006 156.505 48.1006H161.999V46.6853H155.805V54.6183V54.6183Z" fill="#003057"/>
<path d="M165.208 46.6853H163.807V54.6183H165.208V46.6853Z" fill="#003057"/>
<path d="M167.899 54.6183H174.094V53.203H169.301V51.3594H172.693V49.9442H169.301V48.8082C169.301 48.4172 168.987 48.1006 168.6 48.1006H174.094V46.6853H167.899V54.6183V54.6183Z" fill="#003057"/>
<path d="M177.966 46.6853H176.564V54.6183H182.759V53.2216H177.966V46.6853Z" fill="#003057"/>
<path d="M188.363 46.6853H184.565V54.6183H188.363C189.949 54.6183 191.258 53.3147 191.258 51.6946V49.5903C191.258 47.9888 189.967 46.6853 188.363 46.6853ZM189.857 51.7132C189.857 52.5512 189.193 53.2216 188.363 53.2216H185.967V48.8082C185.967 48.4172 185.653 48.1006 185.266 48.1006H188.363C189.193 48.1006 189.857 48.771 189.857 49.609V51.7132V51.7132Z" fill="#003057"/>
<path d="M96.5322 60H115.024V41.3221H96.5322V60ZM104.257 54.6182L107.225 51.6201L113.567 54.6182H104.257ZM103.999 46.6853H105.843H110.544L102.69 54.6182H97.9887L104.921 47.6164L103.999 46.6853Z" fill="#003057"/>
<path d="M211.519 32.9981H0V33.7616H211.519V32.9981Z" fill="#003057"/>
</svg>
