<svg viewBox="0 0 181 40" fill="none" xmlns="http://www.w3.org/2000/svg"><g id="logo horiz blue" clip-path="url(#clip0_4739_4221)" fill="#237"><path id="Vector" d="M59.93 7.15v17.46h-2.837V7.15h-2.801l1.064-1.96h7.757l-1.138 1.96h-2.044z"></path><path id="Vector_2" d="M78.942 16.5l-.378.153 3.902 7.756-2.424.61-4.89-10.155h.647c1.19 0 2.062-.252 2.616-.757.474-.44.712-1.304.712-2.596v-.53c-.025-1.476-.302-2.483-.832-3.02-.53-.54-1.477-.812-2.84-.812H74.7v17.46h-2.802V5.188h3.79c2.244 0 3.871.403 4.882 1.212 1.011.82 1.528 2.348 1.553 4.581v.302c0 .942-.1 1.748-.305 2.417-.252.759-.567 1.33-.944 1.716-.406.402-.797.67-1.174.806-.407.153-.66.243-.758.278z"></path><path id="Vector_3" d="M91.926 5.188h2.802V24.61h-2.802V5.188z"></path><path id="Vector_4" d="M112.405 23.985l-2.727-13.1-3.33 14.135-2.724-.357 4.733-18.367 2.421-1.612 1.859 10.635 2.006-9.074 2.495-1.612 4.013 19.976-2.608.353-2.578-14.135-3.56 13.157v.001z"></path><path id="Vector_5" d="M134.597 10.477l-3.632 14.487-2.959-.354 5.223-18.388 2.544-1.637 5.297 20.025-2.728.354-3.745-14.487z"></path><path id="Vector_6" d="M134.597 24.108l-2.764-2.442h5.493l-2.729 2.442z"></path><path id="Vector_7" d="M156.338 16.5l-.38.153 3.901 7.756-2.422.61-4.89-10.155h.647c1.191 0 2.062-.252 2.616-.757.475-.44.714-1.304.714-2.596v-.53c-.027-1.476-.303-2.483-.834-3.02-.529-.54-1.478-.812-2.838-.812h-.76v17.46h-2.8V5.188h3.79c2.243 0 3.871.403 4.882 1.212 1.01.82 1.527 2.348 1.552 4.581v.302c0 .942-.102 1.748-.304 2.417-.254.759-.567 1.33-.944 1.716-.407.402-.797.67-1.174.806-.406.153-.659.243-.757.278h.001z"></path><path id="Vector_8" d="M168.072 24.61V5.213h2.803V24.61h-2.803zm10.069.63l-6.89-9.344 6.593-11.263 2.495.732-6.36 10.483 6.509 8.56-2.347.831v.002z"></path><path id="Vector_9" d="M20.04 0C8.973 0 0 8.955 0 20s8.971 20 20.04 20c11.069 0 20.037-8.956 20.037-20S31.106 0 20.04 0zm0 38.446c-10.208 0-18.485-8.26-18.485-18.447C1.555 9.81 9.832 1.553 20.04 1.553S38.523 9.813 38.523 20c0 10.188-8.276 18.447-18.483 18.447v-.001z"></path><path id="Vector_10" d="M20.038 3.219c-9.286 0-16.814 7.513-16.814 16.78 0 9.266 7.528 16.782 16.814 16.782 9.287 0 16.814-7.513 16.814-16.782 0-9.27-7.527-16.78-16.813-16.78zM12.94 7.984l9.674 5.573-9.674 5.575V7.984zm0 24.032V20.868l9.674 5.574-9.674 5.573v.001zm11.197-6.42V14.449l9.672 5.573-9.672 5.575v-.001z"></path><path id="Vector_11" d="M85.666 34.77c0 1.275-.4 2.253-1.195 2.938-.753.648-1.778.973-3.078.973h-1.726v-7.733h1.849c1.262 0 2.257.317 2.988.95.775.67 1.162 1.628 1.162 2.872zm-1.018 0c0-.993-.31-1.74-.93-2.242-.568-.463-1.365-.695-2.392-.695h-.641v5.964h.73c.924 0 1.675-.242 2.258-.73.65-.543.975-1.31.975-2.297z"></path><path id="Vector_12" d="M94.432 38.68h-1.018v-7.732h1.018v7.733z"></path><path id="Vector_13" d="M109.838 35.124c0 1.076-.344 1.965-1.034 2.668-.69.702-1.591 1.054-2.707 1.054-1.115 0-2.055-.398-2.844-1.194-.79-.794-1.184-1.733-1.184-2.816 0-1.083.4-2.075 1.2-2.867.801-.792 1.777-1.188 2.929-1.188 1.269 0 2.342.53 3.221 1.59l-.798.674a3.374 3.374 0 00-1.074-.928c-.472-.265-.93-.398-1.373-.398-.892 0-1.634.29-2.224.872-.59.582-.886 1.32-.886 2.21 0 .89.3 1.572.897 2.176a2.954 2.954 0 002.181.906c.664 0 1.232-.201 1.704-.608.472-.405.737-.913.797-1.523h-1.815v-.973h3.01v.345z"></path><path id="Vector_14" d="M118.495 38.68h-1.018v-7.732h1.018v7.733z"></path><path id="Vector_15" d="M130.626 31.831h-1.86v6.848h-1.018v-6.848h-1.86v-.883h4.738v.883z"></path><path id="Vector_16" d="M144.517 38.68h-1.177l-.845-1.977h-3.211l-.862 1.975-1.166.003 3.619-8.066 3.642 8.066zm-2.421-2.86l-1.224-2.848-1.216 2.848h2.44z"></path><path id="Vector_17" d="M155.209 38.68h-3.365v-7.732h1.018v6.848h2.347v.885z"></path></g><defs><clipPath id="clip0_4739_4221"><path fill="#fff" d="M0 0h180.488v40H0z"></path></clipPath></defs></svg>